<?xml version="1.0" encoding="UTF-8" standalone="no"?>
<!DOCTYPE svg PUBLIC "-//W3C//DTD SVG 20010904//EN"
              "http://www.w3.org/TR/2001/REC-SVG-20010904/DTD/svg10.dtd">

<svg xmlns="http://www.w3.org/2000/svg"
     width="73.3686mm" height="70.8995mm"
     viewBox="0 0 208 201">
  <path id="Selection"
        fill="blue" stroke="black" stroke-width="1"
        d="M 95.00,1.21
           C 95.00,1.21 107.00,1.21 107.00,1.21
             117.27,1.02 130.44,3.45 140.00,7.20
             156.36,13.63 170.34,23.34 181.54,37.00
             212.54,74.81 210.16,133.03 175.99,168.00
             167.29,176.90 157.41,184.10 146.00,189.14
             132.61,195.06 117.65,198.17 103.00,198.00
             67.09,197.58 32.86,176.10 16.81,144.00
             3.38,117.14 3.38,81.85 16.81,55.00
             28.32,31.99 49.46,13.62 74.00,5.75
             80.86,3.54 87.91,2.50 95.00,1.21 Z
           M 95.00,10.29
           C 62.95,15.18 36.02,32.38 22.87,63.00
             2.50,110.43 24.48,164.40 73.00,183.19
             80.77,186.20 92.69,188.90 101.00,189.00
             116.53,189.18 128.74,187.23 143.00,180.69
             153.95,175.67 163.01,168.82 171.15,159.96
             203.15,125.20 202.47,69.69 168.91,36.09
             149.37,16.53 122.27,7.74 95.00,10.29 Z
           M 76.00,57.00
           C 76.00,57.00 134.00,57.00 134.00,57.00
             134.00,57.00 134.00,98.00 134.00,98.00
             134.00,98.00 147.00,98.00 147.00,98.00
             147.00,98.00 147.00,142.00 147.00,142.00
             147.00,142.00 113.00,142.00 113.00,142.00
             113.00,142.00 113.00,131.00 113.00,131.00
             113.00,131.00 110.00,131.00 110.00,131.00
             110.00,133.59 110.56,139.27 108.40,140.98
             106.51,142.48 98.66,142.00 96.00,142.00
             96.00,142.00 63.00,142.00 63.00,142.00
             63.00,142.00 63.00,117.00 63.00,117.00
             63.00,117.00 76.00,117.00 76.00,117.00
             76.00,117.00 76.00,57.00 76.00,57.00 Z
           M 130.00,61.00
           C 130.00,61.00 80.00,61.00 80.00,61.00
             80.00,61.00 80.00,117.00 80.00,117.00
             80.00,117.00 110.00,117.00 110.00,117.00
             110.00,117.00 110.00,127.00 110.00,127.00
             110.00,127.00 113.00,127.00 113.00,127.00
             113.00,127.00 113.00,98.00 113.00,98.00
             113.00,98.00 130.00,98.00 130.00,98.00
             130.00,98.00 130.00,61.00 130.00,61.00 Z
           M 83.00,64.00
           C 83.00,64.00 103.00,64.00 103.00,64.00
             103.00,64.00 103.00,86.00 103.00,86.00
             103.00,86.00 83.00,86.00 83.00,86.00
             83.00,86.00 83.00,64.00 83.00,64.00 Z
           M 99.00,67.00
           C 99.00,67.00 87.00,67.00 87.00,67.00
             87.00,67.00 87.00,83.00 87.00,83.00
             87.00,83.00 99.00,83.00 99.00,83.00
             99.00,83.00 99.00,67.00 99.00,67.00 Z
           M 106.00,73.00
           C 106.00,73.00 127.00,73.00 127.00,73.00
             127.00,73.00 127.00,77.00 127.00,77.00
             127.00,77.00 106.00,77.00 106.00,77.00
             106.00,77.00 106.00,73.00 106.00,73.00 Z
           M 106.00,83.00
           C 106.00,83.00 127.00,83.00 127.00,83.00
             127.00,83.00 127.00,86.00 127.00,86.00
             127.00,86.00 106.00,86.00 106.00,86.00
             106.00,86.00 106.00,83.00 106.00,83.00 Z
           M 83.00,92.00
           C 83.00,92.00 127.00,92.00 127.00,92.00
             127.00,92.00 127.00,96.00 127.00,96.00
             127.00,96.00 83.00,96.00 83.00,96.00
             83.00,96.00 83.00,92.00 83.00,92.00 Z
           M 144.00,101.00
           C 144.00,101.00 116.00,101.00 116.00,101.00
             116.00,101.00 116.00,138.00 116.00,138.00
             116.00,138.00 144.00,138.00 144.00,138.00
             144.00,138.00 144.00,101.00 144.00,101.00 Z
           M 83.00,103.00
           C 83.00,103.00 110.00,103.00 110.00,103.00
             108.29,107.87 105.64,106.99 101.00,107.00
             101.00,107.00 83.00,107.00 83.00,107.00
             83.00,107.00 83.00,103.00 83.00,103.00 Z
           M 118.00,103.00
           C 118.00,103.00 142.00,103.00 142.00,103.00
             142.00,103.00 142.00,115.00 142.00,115.00
             142.00,115.00 118.00,115.00 118.00,115.00
             118.00,115.00 118.00,103.00 118.00,103.00 Z
           M 138.00,107.00
           C 138.00,107.00 122.00,107.00 122.00,107.00
             122.00,107.00 122.00,111.00 122.00,111.00
             122.00,111.00 138.00,111.00 138.00,111.00
             138.00,111.00 138.00,107.00 138.00,107.00 Z
           M 118.00,117.00
           C 118.00,117.00 122.00,117.00 122.00,117.00
             122.00,117.00 122.00,120.00 122.00,120.00
             122.00,120.00 118.00,120.00 118.00,120.00
             118.00,120.00 118.00,117.00 118.00,117.00 Z
           M 125.00,117.00
           C 125.00,117.00 128.00,117.00 128.00,117.00
             128.00,117.00 128.00,120.00 128.00,120.00
             128.00,120.00 125.00,120.00 125.00,120.00
             125.00,120.00 125.00,117.00 125.00,117.00 Z
           M 132.00,117.00
           C 132.00,117.00 135.00,117.00 135.00,117.00
             135.00,117.00 135.00,120.00 135.00,120.00
             135.00,120.00 132.00,120.00 132.00,120.00
             132.00,120.00 132.00,117.00 132.00,117.00 Z
           M 138.00,117.00
           C 138.00,117.00 142.00,117.00 142.00,117.00
             142.00,117.00 142.00,120.00 142.00,120.00
             142.00,120.00 138.00,120.00 138.00,120.00
             138.00,120.00 138.00,117.00 138.00,117.00 Z
           M 69.00,120.00
           C 69.00,120.00 66.00,123.00 66.00,123.00
             66.00,123.00 69.00,120.00 69.00,120.00 Z
           M 106.00,132.00
           C 105.59,127.08 101.99,121.67 96.91,120.16
             95.51,119.94 92.54,120.00 91.00,120.16
             87.25,119.99 76.17,119.39 73.37,121.01
             72.22,121.68 70.68,123.43 69.68,124.43
             66.55,127.57 66.37,127.52 66.00,132.00
             70.60,134.21 71.69,136.41 74.17,137.40
             76.68,138.41 95.32,138.41 97.83,137.40
             100.31,136.41 101.40,134.21 106.00,132.00 Z
           M 106.00,123.00
           C 106.00,123.00 103.00,120.00 103.00,120.00
             103.00,120.00 106.00,123.00 106.00,123.00 Z
           M 84.13,122.78
           C 93.94,121.36 93.42,133.35 87.89,135.38
             81.36,137.79 76.48,127.64 84.13,122.78 Z
           M 118.00,122.00
           C 118.00,122.00 122.00,122.00 122.00,122.00
             122.00,122.00 122.00,126.00 122.00,126.00
             122.00,126.00 118.00,126.00 118.00,126.00
             118.00,126.00 118.00,122.00 118.00,122.00 Z
           M 125.00,122.00
           C 125.00,122.00 128.00,122.00 128.00,122.00
             128.00,122.00 128.00,126.00 128.00,126.00
             128.00,126.00 125.00,126.00 125.00,126.00
             125.00,126.00 125.00,122.00 125.00,122.00 Z
           M 132.00,122.00
           C 132.00,122.00 135.00,122.00 135.00,122.00
             135.00,122.00 135.00,126.00 135.00,126.00
             135.00,126.00 132.00,126.00 132.00,126.00
             132.00,126.00 132.00,122.00 132.00,122.00 Z
           M 138.00,122.00
           C 138.00,122.00 142.00,122.00 142.00,122.00
             142.00,122.00 142.00,126.00 142.00,126.00
             138.93,124.93 139.07,125.07 138.00,122.00 Z
           M 87.00,126.00
           C 87.00,126.00 85.00,126.00 85.00,126.00
             85.00,126.00 85.00,133.00 85.00,133.00
             85.00,133.00 87.00,133.00 87.00,133.00
             87.00,133.00 87.00,126.00 87.00,126.00 Z
           M 73.00,131.00
           C 74.07,127.93 73.93,128.07 77.00,127.00
             77.00,127.00 77.00,131.00 77.00,131.00
             77.00,131.00 73.00,131.00 73.00,131.00 Z
           M 95.00,127.00
           C 95.00,127.00 99.00,127.00 99.00,127.00
             99.00,127.00 99.00,131.00 99.00,131.00
             99.00,131.00 95.00,131.00 95.00,131.00
             95.00,131.00 95.00,127.00 95.00,127.00 Z
           M 118.00,127.00
           C 118.00,127.00 122.00,127.00 122.00,127.00
             122.00,127.00 122.00,131.00 122.00,131.00
             122.00,131.00 118.00,131.00 118.00,131.00
             118.00,131.00 118.00,127.00 118.00,127.00 Z
           M 125.00,127.00
           C 125.00,127.00 128.00,127.00 128.00,127.00
             128.00,127.00 128.00,131.00 128.00,131.00
             128.00,131.00 125.00,131.00 125.00,131.00
             125.00,131.00 125.00,127.00 125.00,127.00 Z
           M 132.00,127.00
           C 132.00,127.00 135.00,127.00 135.00,127.00
             135.00,127.00 135.00,131.00 135.00,131.00
             135.00,131.00 132.00,131.00 132.00,131.00
             132.00,131.00 132.00,127.00 132.00,127.00 Z
           M 138.00,127.00
           C 138.00,127.00 142.00,127.00 142.00,127.00
             142.00,127.00 142.00,131.00 142.00,131.00
             142.00,131.00 138.00,131.00 138.00,131.00
             138.00,131.00 138.00,127.00 138.00,127.00 Z
           M 118.00,133.00
           C 118.00,133.00 122.00,133.00 122.00,133.00
             122.00,133.00 122.00,136.00 122.00,136.00
             122.00,136.00 118.00,136.00 118.00,136.00
             118.00,136.00 118.00,133.00 118.00,133.00 Z
           M 125.00,133.00
           C 125.00,133.00 128.00,133.00 128.00,133.00
             128.00,133.00 128.00,136.00 128.00,136.00
             128.00,136.00 125.00,136.00 125.00,136.00
             125.00,136.00 125.00,133.00 125.00,133.00 Z
           M 132.00,133.00
           C 132.00,133.00 135.00,133.00 135.00,133.00
             135.00,133.00 135.00,136.00 135.00,136.00
             135.00,136.00 132.00,136.00 132.00,136.00
             132.00,136.00 132.00,133.00 132.00,133.00 Z
           M 138.00,133.00
           C 138.00,133.00 142.00,133.00 142.00,133.00
             142.00,133.00 142.00,136.00 142.00,136.00
             142.00,136.00 138.00,136.00 138.00,136.00
             138.00,136.00 138.00,133.00 138.00,133.00 Z" />
</svg>
